<?xml version="1.0" encoding="UTF-8" standalone="no"?>
<!-- Created with Inkscape (http://www.inkscape.org/) -->

<svg
   width="25"
   height="41"
   viewBox="0 0 6.6145832 10.847917"
   version="1.1"
   id="svg5"
   xml:space="preserve"
   xmlns:inkscape="http://www.inkscape.org/namespaces/inkscape"
   xmlns:sodipodi="http://sodipodi.sourceforge.net/DTD/sodipodi-0.dtd"
   xmlns="http://www.w3.org/2000/svg"
   xmlns:svg="http://www.w3.org/2000/svg"><sodipodi:namedview
     id="namedview7"
     pagecolor="#ffffff"
     bordercolor="#000000"
     borderopacity="0.25"
     inkscape:showpageshadow="2"
     inkscape:pageopacity="0.0"
     inkscape:pagecheckerboard="0"
     inkscape:deskcolor="#d1d1d1"
     inkscape:document-units="mm"
     showgrid="false" /><defs
     id="defs2" /><g
     inkscape:label="Camada 1"
     inkscape:groupmode="layer"
     id="layer1"><path
       style="fill:#f0bc57;fill-opacity:1;stroke-width:1"
       d="M 1.7097098,7.8572119 C 0.90344294,6.2123247 0.16003208,4.4726019 0.05768609,3.9911611 -0.3404127,2.1184762 1.3844521,0 3.3072915,0 5.230132,0 6.9549968,2.1184762 6.556897,3.9911611 6.3654081,4.89194 3.5427063,10.847917 3.3072915,10.847917 c -0.072403,0 -0.7913137,-1.3458179 -1.5975817,-2.9907051 z M 4.2606355,3.8927904 c 0.2071452,-0.3953264 0.2071452,-0.7174939 0,-1.1128201 -0.3812647,-0.7276247 -1.5254222,-0.7276247 -1.9066869,0 -0.4074619,0.7776195 0.1017643,1.6692301 0.9533429,1.6692301 0.38302,0 0.7846056,-0.2343816 0.953344,-0.55641 z"
       id="path302" /></g></svg>
