<?xml version="1.0" encoding="UTF-8" standalone="no"?>
<!-- Created with Inkscape (http://www.inkscape.org/) -->

<svg
   width="25.000072"
   height="40.999977"
   viewBox="0 0 6.6146024 10.847911"
   version="1.1"
   id="svg5"
   xml:space="preserve"
   xmlns="http://www.w3.org/2000/svg"
   xmlns:svg="http://www.w3.org/2000/svg"><defs
     id="defs2" /><g
     id="layer1"><path
       style="fill:#f0bc57;fill-opacity:1;stroke:#c8942f;stroke-width:0.264583;stroke-dasharray:none;stroke-opacity:1"
       d="M 1.7737313,7.7978629 C 0.99977474,6.1930958 0.28615531,4.4958063 0.18791073,4.0261082 -0.19423466,2.1990996 1.4615079,0.1322947 3.3072915,0.1322947 c 1.8457846,0 3.5015272,2.0668049 3.1193809,3.8938135 C 6.2428572,4.9049164 3.5332723,10.715622 3.3072915,10.715622 3.23779,10.715622 2.5476889,9.40263 1.7737313,7.7978629 Z M 4.2224312,3.9301368 c 0.1988441,-0.385684 0.1988441,-0.6999936 0,-1.0856775 -0.3659859,-0.7098774 -1.4642924,-0.7098774 -1.8302783,0 -0.3911333,0.7586527 0.097686,1.6285162 0.9151386,1.6285162 0.3676709,0 0.7531633,-0.2286648 0.9151397,-0.5428387 z"
       id="path302" /></g></svg>
